<mxfile host="Electron" modified="2023-11-11T01:54:31.788Z" agent="Mozilla/5.0 (Windows NT 10.0; Win64; x64) AppleWebKit/537.36 (KHTML, like Gecko) draw.io/22.0.2 Chrome/114.0.5735.289 Electron/25.8.4 Safari/537.36" etag="UlrFwZILL3AzdUjHHBgo" version="22.0.2" type="device">
  <diagram name="Página-1" id="neqQ7_bpKXJYCwhYpqjy">
    <mxGraphModel dx="1152" dy="677" grid="1" gridSize="10" guides="1" tooltips="1" connect="1" arrows="1" fold="1" page="1" pageScale="1" pageWidth="827" pageHeight="1169" math="0" shadow="0">
      <root>
        <mxCell id="0" />
        <mxCell id="1" parent="0" />
        <mxCell id="uKLNovfY4oGWHYD9sNl_-27" value="Inicio" style="ellipse;whiteSpace=wrap;html=1;" parent="1" vertex="1">
          <mxGeometry x="310" y="130" width="120" height="80" as="geometry" />
        </mxCell>
        <mxCell id="uKLNovfY4oGWHYD9sNl_-29" value="" style="endArrow=classic;html=1;rounded=0;" parent="1" edge="1">
          <mxGeometry width="50" height="50" relative="1" as="geometry">
            <mxPoint x="369.44" y="210" as="sourcePoint" />
            <mxPoint x="369.44" y="270" as="targetPoint" />
          </mxGeometry>
        </mxCell>
        <mxCell id="uKLNovfY4oGWHYD9sNl_-30" value="bienvenido(a)por favor ingresa al sistema" style="rounded=0;whiteSpace=wrap;html=1;" parent="1" vertex="1">
          <mxGeometry x="310" y="270" width="120" height="60" as="geometry" />
        </mxCell>
        <mxCell id="uKLNovfY4oGWHYD9sNl_-31" value="" style="endArrow=classic;html=1;rounded=0;" parent="1" edge="1">
          <mxGeometry width="50" height="50" relative="1" as="geometry">
            <mxPoint x="369.44" y="330" as="sourcePoint" />
            <mxPoint x="369.44" y="390" as="targetPoint" />
          </mxGeometry>
        </mxCell>
        <mxCell id="uKLNovfY4oGWHYD9sNl_-32" value="ingresa tu usuario" style="rounded=0;whiteSpace=wrap;html=1;" parent="1" vertex="1">
          <mxGeometry x="310" y="390" width="120" height="60" as="geometry" />
        </mxCell>
        <mxCell id="uKLNovfY4oGWHYD9sNl_-35" value="" style="endArrow=classic;html=1;rounded=0;" parent="1" target="uKLNovfY4oGWHYD9sNl_-36" edge="1">
          <mxGeometry width="50" height="50" relative="1" as="geometry">
            <mxPoint x="369.73" y="450" as="sourcePoint" />
            <mxPoint x="369.73" y="510" as="targetPoint" />
          </mxGeometry>
        </mxCell>
        <mxCell id="uKLNovfY4oGWHYD9sNl_-36" value="Leo usuario" style="rounded=0;whiteSpace=wrap;html=1;" parent="1" vertex="1">
          <mxGeometry x="309.73" y="480" width="120" height="40" as="geometry" />
        </mxCell>
        <mxCell id="uKLNovfY4oGWHYD9sNl_-38" value="Ingresa tu password" style="rounded=0;whiteSpace=wrap;html=1;" parent="1" vertex="1">
          <mxGeometry x="309.73" y="550" width="120" height="60" as="geometry" />
        </mxCell>
        <mxCell id="uKLNovfY4oGWHYD9sNl_-39" value="" style="endArrow=classic;html=1;rounded=0;" parent="1" edge="1">
          <mxGeometry width="50" height="50" relative="1" as="geometry">
            <mxPoint x="369.71000000000004" y="520" as="sourcePoint" />
            <mxPoint x="369.98" y="550" as="targetPoint" />
          </mxGeometry>
        </mxCell>
        <mxCell id="uKLNovfY4oGWHYD9sNl_-43" value="" style="endArrow=classic;html=1;rounded=0;" parent="1" edge="1">
          <mxGeometry width="50" height="50" relative="1" as="geometry">
            <mxPoint x="369.40999999999997" y="650" as="sourcePoint" />
            <mxPoint x="369.40999999999997" y="710" as="targetPoint" />
          </mxGeometry>
        </mxCell>
        <mxCell id="uKLNovfY4oGWHYD9sNl_-44" value="" style="endArrow=classic;html=1;rounded=0;" parent="1" target="uKLNovfY4oGWHYD9sNl_-45" edge="1">
          <mxGeometry width="50" height="50" relative="1" as="geometry">
            <mxPoint x="369.67" y="610" as="sourcePoint" />
            <mxPoint x="369.67" y="670" as="targetPoint" />
          </mxGeometry>
        </mxCell>
        <mxCell id="uKLNovfY4oGWHYD9sNl_-45" value="Leo password" style="rounded=0;whiteSpace=wrap;html=1;" parent="1" vertex="1">
          <mxGeometry x="309.67" y="640" width="120" height="30" as="geometry" />
        </mxCell>
        <mxCell id="uKLNovfY4oGWHYD9sNl_-46" value="user==usuario &amp;&amp; pass ==password" style="rhombus;whiteSpace=wrap;html=1;" parent="1" vertex="1">
          <mxGeometry x="270" y="710" width="195.33" height="170" as="geometry" />
        </mxCell>
        <mxCell id="uKLNovfY4oGWHYD9sNl_-47" value="SI&lt;br&gt;" style="endArrow=classic;html=1;rounded=0;entryX=1;entryY=0.5;entryDx=0;entryDy=0;" parent="1" target="uKLNovfY4oGWHYD9sNl_-49" edge="1">
          <mxGeometry width="50" height="50" relative="1" as="geometry">
            <mxPoint x="460" y="794.63" as="sourcePoint" />
            <mxPoint x="480" y="950" as="targetPoint" />
            <Array as="points">
              <mxPoint x="610" y="795" />
              <mxPoint x="610" y="950" />
            </Array>
          </mxGeometry>
        </mxCell>
        <mxCell id="uKLNovfY4oGWHYD9sNl_-49" value="Porfavpr ingrese un numero de la tabla de multiplicar" style="rounded=0;whiteSpace=wrap;html=1;" parent="1" vertex="1">
          <mxGeometry x="310" y="920" width="120" height="60" as="geometry" />
        </mxCell>
        <mxCell id="uKLNovfY4oGWHYD9sNl_-52" value="" style="endArrow=classic;html=1;rounded=0;fontStyle=0" parent="1" edge="1">
          <mxGeometry width="50" height="50" relative="1" as="geometry">
            <mxPoint x="369.58" y="980" as="sourcePoint" />
            <mxPoint x="369.58" y="1040" as="targetPoint" />
          </mxGeometry>
        </mxCell>
        <mxCell id="uKLNovfY4oGWHYD9sNl_-53" value="Leo numero" style="rounded=0;whiteSpace=wrap;html=1;" parent="1" vertex="1">
          <mxGeometry x="310" y="1040" width="120" height="60" as="geometry" />
        </mxCell>
        <mxCell id="uKLNovfY4oGWHYD9sNl_-55" value="" style="endArrow=classic;html=1;rounded=0;fontStyle=0" parent="1" edge="1">
          <mxGeometry width="50" height="50" relative="1" as="geometry">
            <mxPoint x="369.5" y="1100" as="sourcePoint" />
            <mxPoint x="369.5" y="1160" as="targetPoint" />
          </mxGeometry>
        </mxCell>
        <mxCell id="uKLNovfY4oGWHYD9sNl_-56" value="i=1;i&amp;lt;=10;i++" style="rounded=0;whiteSpace=wrap;html=1;" parent="1" vertex="1">
          <mxGeometry x="309.66999999999996" y="1160" width="120" height="60" as="geometry" />
        </mxCell>
        <mxCell id="uKLNovfY4oGWHYD9sNl_-58" value="" style="endArrow=classic;html=1;rounded=0;fontStyle=0" parent="1" edge="1">
          <mxGeometry width="50" height="50" relative="1" as="geometry">
            <mxPoint x="369.25" y="1220" as="sourcePoint" />
            <mxPoint x="369.25" y="1280" as="targetPoint" />
          </mxGeometry>
        </mxCell>
        <mxCell id="uKLNovfY4oGWHYD9sNl_-59" value="multiplicacion =i*numero" style="rounded=0;whiteSpace=wrap;html=1;" parent="1" vertex="1">
          <mxGeometry x="310" y="1280" width="120" height="60" as="geometry" />
        </mxCell>
        <mxCell id="uKLNovfY4oGWHYD9sNl_-60" value="¿Quieres generar otro numero de la tabla de multiplicar?" style="rhombus;whiteSpace=wrap;html=1;" parent="1" vertex="1">
          <mxGeometry x="290" y="1370" width="160" height="150" as="geometry" />
        </mxCell>
        <mxCell id="uKLNovfY4oGWHYD9sNl_-61" value="" style="endArrow=classic;html=1;rounded=0;exitX=0.5;exitY=1;exitDx=0;exitDy=0;" parent="1" source="uKLNovfY4oGWHYD9sNl_-59" target="uKLNovfY4oGWHYD9sNl_-60" edge="1">
          <mxGeometry width="50" height="50" relative="1" as="geometry">
            <mxPoint x="384" y="1360" as="sourcePoint" />
            <mxPoint x="414" y="1340" as="targetPoint" />
          </mxGeometry>
        </mxCell>
        <mxCell id="uKLNovfY4oGWHYD9sNl_-62" value="" style="endArrow=classic;html=1;rounded=0;" parent="1" edge="1">
          <mxGeometry width="50" height="50" relative="1" as="geometry">
            <mxPoint x="450" y="1444.52" as="sourcePoint" />
            <mxPoint x="520" y="950" as="targetPoint" />
            <Array as="points">
              <mxPoint x="520" y="1445" />
            </Array>
          </mxGeometry>
        </mxCell>
        <mxCell id="uKLNovfY4oGWHYD9sNl_-65" value="si&lt;br&gt;" style="edgeLabel;html=1;align=center;verticalAlign=middle;resizable=0;points=[];" parent="uKLNovfY4oGWHYD9sNl_-62" vertex="1" connectable="0">
          <mxGeometry x="-0.1888" y="2" relative="1" as="geometry">
            <mxPoint as="offset" />
          </mxGeometry>
        </mxCell>
        <mxCell id="uKLNovfY4oGWHYD9sNl_-64" value="" style="endArrow=classic;html=1;rounded=0;" parent="1" edge="1">
          <mxGeometry width="50" height="50" relative="1" as="geometry">
            <mxPoint x="290" y="1444.76" as="sourcePoint" />
            <mxPoint x="310" y="1630" as="targetPoint" />
            <Array as="points">
              <mxPoint x="200" y="1445" />
              <mxPoint x="200" y="1630" />
            </Array>
          </mxGeometry>
        </mxCell>
        <mxCell id="uKLNovfY4oGWHYD9sNl_-66" value="no&lt;br&gt;" style="edgeLabel;html=1;align=center;verticalAlign=middle;resizable=0;points=[];" parent="uKLNovfY4oGWHYD9sNl_-64" vertex="1" connectable="0">
          <mxGeometry x="-0.4588" y="4" relative="1" as="geometry">
            <mxPoint as="offset" />
          </mxGeometry>
        </mxCell>
        <mxCell id="uKLNovfY4oGWHYD9sNl_-69" value="&lt;span style=&quot;font-size: 7px;&quot;&gt;0:0:01&lt;/span&gt;" style="rounded=0;whiteSpace=wrap;html=1;" parent="1" vertex="1">
          <mxGeometry x="309.67" y="1580" width="220.33" height="120" as="geometry" />
        </mxCell>
        <mxCell id="uKLNovfY4oGWHYD9sNl_-70" value="Fin" style="ellipse;whiteSpace=wrap;html=1;" parent="1" vertex="1">
          <mxGeometry x="345.33" y="1770" width="120" height="80" as="geometry" />
        </mxCell>
        <mxCell id="uKLNovfY4oGWHYD9sNl_-71" value="" style="endArrow=classic;html=1;rounded=0;exitX=0.439;exitY=1.005;exitDx=0;exitDy=0;exitPerimeter=0;" parent="1" source="uKLNovfY4oGWHYD9sNl_-69" target="uKLNovfY4oGWHYD9sNl_-70" edge="1">
          <mxGeometry width="50" height="50" relative="1" as="geometry">
            <mxPoint x="350" y="1720" as="sourcePoint" />
            <mxPoint x="400" y="1670" as="targetPoint" />
          </mxGeometry>
        </mxCell>
        <mxCell id="uKLNovfY4oGWHYD9sNl_-72" value="" style="endArrow=classic;html=1;rounded=0;exitX=0;exitY=0.5;exitDx=0;exitDy=0;" parent="1" source="uKLNovfY4oGWHYD9sNl_-46" edge="1">
          <mxGeometry width="50" height="50" relative="1" as="geometry">
            <mxPoint x="345.33" y="794.6800000000001" as="sourcePoint" />
            <mxPoint x="175.32999999999998" y="794.6800000000001" as="targetPoint" />
          </mxGeometry>
        </mxCell>
        <mxCell id="uKLNovfY4oGWHYD9sNl_-74" value="no" style="edgeLabel;html=1;align=center;verticalAlign=middle;resizable=0;points=[];" parent="uKLNovfY4oGWHYD9sNl_-72" vertex="1" connectable="0">
          <mxGeometry x="0.1291" y="1" relative="1" as="geometry">
            <mxPoint as="offset" />
          </mxGeometry>
        </mxCell>
        <mxCell id="uKLNovfY4oGWHYD9sNl_-73" value="usuario no valido porfavor contacta a soporte" style="rounded=0;whiteSpace=wrap;html=1;" parent="1" vertex="1">
          <mxGeometry x="60" y="765" width="120" height="60" as="geometry" />
        </mxCell>
      </root>
    </mxGraphModel>
  </diagram>
</mxfile>
